<svg width="1336" height="781" viewBox="0 0 1336 781" fill="none" xmlns="http://www.w3.org/2000/svg">
<g filter="url(#filter0_i_113_21)">
<path d="M0 70.8785C0 38.1595 26.2138 11.4729 58.9276 10.8881L668 0L1277.07 10.8881C1309.79 11.4729 1336 38.1595 1336 70.8785V700.303C1336 732.647 1310.36 759.169 1278.04 760.268L668 781L57.9622 760.268C25.637 759.169 0 732.647 0 700.303V70.8785Z" fill="#33425F"/>
<path d="M0 70.8785C0 38.1595 26.2138 11.4729 58.9276 10.8881L668 0L1277.07 10.8881C1309.79 11.4729 1336 38.1595 1336 70.8785V700.303C1336 732.647 1310.36 759.169 1278.04 760.268L668 781L57.9622 760.268C25.637 759.169 0 732.647 0 700.303V70.8785Z" fill="url(#paint0_linear_113_21)" fill-opacity="0.07"/>
</g>
<defs>
<filter id="filter0_i_113_21" x="-10" y="-6" width="1346" height="787" filterUnits="userSpaceOnUse" color-interpolation-filters="sRGB">
<feFlood flood-opacity="0" result="BackgroundImageFix"/>
<feBlend mode="normal" in="SourceGraphic" in2="BackgroundImageFix" result="shape"/>
<feColorMatrix in="SourceAlpha" type="matrix" values="0 0 0 0 0 0 0 0 0 0 0 0 0 0 0 0 0 0 127 0" result="hardAlpha"/>
<feOffset dx="-10" dy="-6"/>
<feGaussianBlur stdDeviation="22"/>
<feComposite in2="hardAlpha" operator="arithmetic" k2="-1" k3="1"/>
<feColorMatrix type="matrix" values="0 0 0 0 0 0 0 0 0 0 0 0 0 0 0 0 0 0 0.12 0"/>
<feBlend mode="normal" in2="shape" result="effect1_innerShadow_113_21"/>
</filter>
<linearGradient id="paint0_linear_113_21" x1="148.299" y1="194.839" x2="1195.07" y2="676.796" gradientUnits="userSpaceOnUse">
<stop stop-opacity="0"/>
<stop offset="1"/>
</linearGradient>
</defs>
</svg>
