<svg width="57" height="75" viewBox="0 0 57 75" fill="none" xmlns="http://www.w3.org/2000/svg">
<rect x="0.537842" y="0.140808" width="56" height="74" rx="12.5711" fill="#3C4C69"/>
<mask id="mask0_128_3898" style="mask-type:alpha" maskUnits="userSpaceOnUse" x="0" y="0" width="57" height="75">
<rect x="0.537842" y="0.140808" width="56" height="74" rx="12.5711" fill="#222D40"/>
</mask>
<g mask="url(#mask0_128_3898)">
<rect x="0.537842" y="0.140808" width="56" height="74" rx="12.5711" fill="#3C4C69"/>
<path d="M36.4025 37.1961C36.4025 41.417 32.9499 44.8387 28.691 44.8387C24.4321 44.8387 20.9795 41.417 20.9795 37.1961C20.9795 32.9751 24.4321 29.5534 28.691 29.5534C32.9499 29.5534 36.4025 32.9751 36.4025 37.1961ZM24.4728 37.1961C24.4728 39.5049 26.3614 41.3766 28.691 41.3766C31.0206 41.3766 32.9092 39.5049 32.9092 37.1961C32.9092 34.8872 31.0206 33.0155 28.691 33.0155C26.3614 33.0155 24.4728 34.8872 24.4728 37.1961Z" fill="#28303F"/>
<path d="M28.6909 39.5852C27.3596 39.5852 26.2803 38.5155 26.2803 37.196C26.2803 35.8765 27.3596 34.8069 28.6909 34.8069C30.0223 34.8069 31.1016 35.8765 31.1016 37.196C31.1016 38.5155 30.0223 39.5852 28.6909 39.5852Z" fill="#28303F"/>
<path d="M28.6911 24.5726L30.3282 27.7892L28.6911 31.0058L27.054 27.7892L28.6911 24.5726Z" fill="#28303F"/>
<path d="M28.691 10.6726L32.1309 17.4311L28.691 24.1895L25.2512 17.4311L28.691 10.6726Z" fill="#28303F"/>
<path d="M24.007 25.4571L26.723 27.8516L26.3941 31.4395L23.6782 29.045L24.007 25.4571Z" fill="#28303F"/>
<path d="M18.8494 12.5312L24.556 17.5624L23.865 25.1009L18.1584 20.0698L18.8494 12.5312Z" fill="#28303F"/>
<path d="M41.1924 34.7784L38.3205 36.9869L34.8215 36.0104L37.6934 33.8019L41.1924 34.7784Z" fill="#28303F"/>
<path d="M54.9581 32.1164L48.9238 36.7567L41.5719 34.7051L47.6062 30.0647L54.9581 32.1164Z" fill="#28303F"/>
<path d="M36.7292 27.4036L35.951 30.9227L32.6328 32.394L33.4111 28.8749L36.7292 27.4036Z" fill="#28303F"/>
<path d="M45.58 16.6211L43.9449 24.0152L36.973 27.1065L38.6082 19.7124L45.58 16.6211Z" fill="#28303F"/>
<path d="M39.9282 43.1395L36.294 43.0565L34.2015 40.1106L37.8356 40.1936L39.9282 43.1395Z" fill="#28303F"/>
<path d="M52.3016 49.6839L44.6658 49.5095L40.2692 43.3199L47.9049 43.4943L52.3016 49.6839Z" fill="#28303F"/>
<path d="M32.9588 25.3022L33.4139 28.8765L30.7839 31.3635L30.3288 27.7892L32.9588 25.3022Z" fill="#28303F"/>
<path d="M37.6577 12.2056L38.6139 19.7157L33.0881 24.9413L32.1319 17.4312L37.6577 12.2056Z" fill="#28303F"/>
<path d="M41.2873 39.0693L37.8347 40.1965L34.8681 38.1146L38.3206 36.9874L41.2873 39.0693Z" fill="#28303F"/>
<path d="M55.157 41.1322L47.9027 43.5006L41.6694 39.1262L48.9237 36.7578L55.157 41.1322Z" fill="#28303F"/>
<path d="M39.575 30.6387L37.6521 33.696L34.0283 33.9804L35.9513 30.9231L39.575 30.6387Z" fill="#28303F"/>
<path d="M51.5595 23.4183L47.5192 29.8421L39.9053 30.4397L43.9456 24.0159L51.5595 23.4183Z" fill="#28303F"/>
<path d="M37.2693 46.5272L33.8733 45.2422L32.8976 41.7718L36.2936 43.0567L37.2693 46.5272Z" fill="#28303F"/>
<path d="M46.7151 56.8021L39.5797 54.1022L37.5296 46.8104L44.6651 49.5103L46.7151 56.8021Z" fill="#28303F"/>
<path d="M28.6911 43.3863L30.3281 46.6029L28.6911 49.8195L27.054 46.6029L28.6911 43.3863Z" fill="#28303F"/>
<path d="M28.6912 50.2026L32.1309 56.961L28.6912 63.7195L25.2515 56.961L28.6912 50.2026Z" fill="#28303F"/>
<path d="M30.9882 42.9525L33.7041 45.347L33.3753 48.9349L30.6594 46.5403L30.9882 42.9525Z" fill="#28303F"/>
<path d="M33.5173 49.2911L39.2238 54.3223L38.5329 61.8608L32.8264 56.8296L33.5173 49.2911Z" fill="#28303F"/>
<path d="M22.5606 38.3816L19.6886 40.59L16.1896 39.6136L19.0616 37.4051L22.5606 38.3816Z" fill="#28303F"/>
<path d="M15.8104 39.6871L9.77603 44.3273L2.42416 42.2757L8.4585 37.6355L15.8104 39.6871Z" fill="#28303F"/>
<path d="M24.7494 41.998L23.9712 45.517L20.6531 46.9883L21.4313 43.4693L24.7494 41.998Z" fill="#28303F"/>
<path d="M20.4093 47.2855L18.7741 54.6796L11.8023 57.771L13.4375 50.3769L20.4093 47.2855Z" fill="#28303F"/>
<path d="M23.1806 34.2815L19.5465 34.1984L17.454 31.2526L21.0881 31.3356L23.1806 34.2815Z" fill="#28303F"/>
<path d="M17.1132 31.0722L9.47744 30.8977L5.08075 24.7081L12.7165 24.8827L17.1132 31.0722Z" fill="#28303F"/>
<path d="M26.5984 43.0285L27.0534 46.6028L24.4235 49.0898L23.9685 45.5155L26.5984 43.0285Z" fill="#28303F"/>
<path d="M24.2941 49.4508L25.2503 56.9608L19.7245 62.1865L18.7684 54.6765L24.2941 49.4508Z" fill="#28303F"/>
<path d="M22.5141 36.2774L19.0616 37.4046L16.0949 35.3227L19.5474 34.1956L22.5141 36.2774Z" fill="#28303F"/>
<path d="M15.7127 35.2659L8.45839 37.6342L2.22503 33.26L9.47932 30.8917L15.7127 35.2659Z" fill="#28303F"/>
<path d="M23.3538 40.4116L21.4309 43.4688L17.8071 43.7533L19.7301 40.696L23.3538 40.4116Z" fill="#28303F"/>
<path d="M17.477 43.9523L13.4366 50.376L5.82272 50.9737L9.86307 44.55L17.477 43.9523Z" fill="#28303F"/>
<path d="M24.4844 32.6201L21.0885 31.3351L20.1127 27.8647L23.5087 29.1497L24.4844 32.6201Z" fill="#28303F"/>
<path d="M19.8526 27.5816L12.7172 24.8817L10.6672 17.5899L17.8025 20.2899L19.8526 27.5816Z" fill="#28303F"/>
</g>
</svg>
