<svg width="45" height="47" viewBox="0 0 45 47" fill="none" xmlns="http://www.w3.org/2000/svg">
<path d="M31.49 38.2027C38.6381 38.2027 44.4327 32.6495 44.4327 25.7993C44.4327 10.5713 22.4327 0.391846 22.4327 0.391846C22.4327 0.391846 0.445559 10.3981 0.432739 25.7993C0.445561 34.6844 6.22739 38.2027 13.3754 38.2027C16.9016 38.2027 20.0984 36.8513 22.4327 34.6595C24.7671 36.8513 27.9639 38.2027 31.49 38.2027Z" fill="black"/>
<path d="M22.4327 34.269C22.4327 34.269 24.1492 39.0123 25.1111 41.282C26.1857 43.8178 28.7823 46.3918 28.7823 46.3918H16.0832C16.0832 46.3918 18.6797 43.8178 19.7544 41.282C20.7162 39.0123 22.4327 34.269 22.4327 34.269Z" fill="black"/>
</svg>
