<svg width="39" height="47" viewBox="0 0 39 47" fill="none" xmlns="http://www.w3.org/2000/svg">
<path d="M28.2741 16.708C29.3236 15.0583 29.9323 13.0957 29.9323 10.9895C29.9323 5.13658 25.2315 0.391846 19.4328 0.391846C13.634 0.391846 8.9332 5.13658 8.9332 10.9895C8.9332 13.0957 9.54191 15.0583 10.5914 16.708C4.95046 16.8896 0.432739 21.5624 0.432739 27.3002C0.432739 33.1531 5.13356 37.8979 10.9323 37.8979C14.4278 37.8979 17.5243 36.1738 19.4327 33.5222C21.3411 36.1738 24.4377 37.8979 27.9332 37.8979C33.7319 37.8979 38.4327 33.1531 38.4327 27.3002C38.4327 21.5624 33.9151 16.8897 28.2741 16.708Z" fill="black"/>
<path d="M19.4328 33.8179C19.4328 33.8179 21.1231 38.7376 22.0704 41.0918C23.1287 43.722 25.6858 46.3918 25.6858 46.3918H13.1797C13.1797 46.3918 15.7368 43.722 16.7951 41.0918C17.7424 38.7376 19.4328 33.8179 19.4328 33.8179Z" fill="black"/>
</svg>
