<svg width="24" height="24" viewBox="0 0 24 24" fill="none" xmlns="http://www.w3.org/2000/svg">
<path d="M12.0001 14.38C13.3146 14.38 14.3801 13.3144 14.3801 12C14.3801 10.6856 13.3146 9.62 12.0001 9.62C10.6857 9.62 9.62012 10.6856 9.62012 12C9.62012 13.3144 10.6857 14.38 12.0001 14.38Z" fill="white"/>
<path opacity="0.4" d="M20 18.75C19.84 18.75 19.69 18.7 19.55 18.6C19.22 18.35 19.15 17.88 19.4 17.55C20.61 15.94 21.25 14.02 21.25 12C21.25 9.98001 20.61 8.06002 19.4 6.45002C19.15 6.12002 19.22 5.65 19.55 5.4C19.88 5.15 20.35 5.21999 20.6 5.54999C22.01 7.41999 22.75 9.65001 22.75 12C22.75 14.35 22.01 16.58 20.6 18.45C20.45 18.65 20.23 18.75 20 18.75Z" fill="white"/>
<path opacity="0.4" d="M4 18.75C3.77 18.75 3.54999 18.65 3.39999 18.45C1.98999 16.58 1.25 14.35 1.25 12C1.25 9.65001 1.98999 7.41999 3.39999 5.54999C3.64999 5.21999 4.12001 5.15 4.45001 5.4C4.78001 5.65 4.85001 6.12002 4.60001 6.45002C3.39001 8.06002 2.75 9.98001 2.75 12C2.75 14.02 3.39001 15.94 4.60001 17.55C4.85001 17.88 4.78001 18.35 4.45001 18.6C4.32001 18.7 4.16 18.75 4 18.75Z" fill="white"/>
<path opacity="0.4" d="M16.8001 16.35C16.6401 16.35 16.4901 16.3 16.3501 16.2C16.0201 15.95 15.9501 15.48 16.2001 15.15C16.8901 14.24 17.2501 13.15 17.2501 12C17.2501 10.85 16.8901 9.76 16.2001 8.85C15.9501 8.52 16.0201 8.04998 16.3501 7.79998C16.6801 7.54998 17.1501 7.62001 17.4001 7.95001C18.2801 9.13001 18.7501 10.53 18.7501 12C18.7501 13.47 18.2801 14.88 17.4001 16.05C17.2501 16.25 17.0301 16.35 16.8001 16.35Z" fill="white"/>
<path opacity="0.4" d="M7.20001 16.35C6.97001 16.35 6.75001 16.25 6.60001 16.05C5.72001 14.87 5.25 13.47 5.25 12C5.25 10.53 5.72001 9.12001 6.60001 7.95001C6.85001 7.62001 7.31999 7.54998 7.64999 7.79998C7.97999 8.04998 8.04999 8.52 7.79999 8.85C7.10999 9.76 6.75 10.85 6.75 12C6.75 13.15 7.10999 14.24 7.79999 15.15C8.04999 15.48 7.97999 15.95 7.64999 16.2C7.51999 16.3 7.36001 16.35 7.20001 16.35Z" fill="white"/>
</svg>
